#!OML:ASF Y:\EmotionMaleHayes\Project 1\Capture day 1\Session 1\Male1.ASF
:FULLY-SPECIFIED
:DEGREES
1903
root 29.9526 17.4003 -18.7805 57.8937 242.669 -51.9169
lowerback 18.5301 3.09435 -1.00013
upperback 7.95922 3.28993 10.8996
thorax -2.46325 1.07089 11.9024
lowerneck -25.6716 4.43462 11.7591
upperneck 31.6089 4.7913 -10.7965
head 16.2236 1.72791 -5.80026
rclavicle -6.36111e-015 1.59028e-014
rhumerus -24.675 -8.29606 -60.3491
rradius 50.4087
rwrist -24.9165
rhand -29.1942 -44.0245
rfingers 7.12502
rthumb -2.53929 -73.9891
lclavicle -6.36111e-015 1.59028e-014
lhumerus 0.975302 25.0755 15.6857
lradius 77.1023
lwrist 41.8113
lhand -26.6491 -26.1262
lfingers 7.12502
lthumb -0.0811494 3.85353
rfemur -36.4793 -3.0689 -4.45186
rtibia 38.0707
rfoot -8.82232 2.34978
rtoes 9.13207
lfemur -0.316117 16.1222 -53.9424
ltibia 12.1345
lfoot 12.1023 -18.3868
ltoes 33.424
1904
root 29.8421 17.388 -18.7915 58.3331 242.688 -51.9726
lowerback 18.3596 3.02513 -1.18601
upperback 7.99556 3.15921 10.8721
thorax -2.31427 0.997853 12.0151
lowerneck -25.758 4.56851 11.8878
upperneck 31.358 4.95314 -10.8631
head 16.1549 1.80101 -5.80064
rclavicle 1.27222e-014 5.725e-014
rhumerus -25.3696 -9.36257 -58.9813
rradius 49.1968
rwrist -26.4873
rhand -27.8337 -42.8167
rfingers 7.12502
rthumb -1.22529 -72.7929
lclavicle 1.27222e-014 5.725e-014
lhumerus 3.04685 24.4501 17.4104
lradius 77.4202
lwrist 41.3159
lhand -26.0215 -26.0225
lfingers 7.12502
lthumb 0.524996 3.95664
rfemur -35.6385 -3.7077 -4.00052
rtibia 35.3159
rfoot -7.30466 0.745725
rtoes 15.4628
lfemur -0.194128 15.9546 -53.704
ltibia 12.2215
lfoot 12.2758 -19.2207
ltoes 34.1402
1905
root 29.7347 17.367 -18.8055 58.8091 242.752 -52.0017
lowerback 18.1048 2.93951 -1.28212
upperback 7.84892 3.05112 10.8989
thorax -2.3229 0.953624 12.1309
lowerneck -24.8206 4.4146 11.5552
upperneck 30.6999 4.92562 -10.7947
head 15.6045 1.76662 -5.65527
rclavicle 8.26944e-014 1.62208e-013
rhumerus -26.7315 -9.59202 -57.3815
rradius 48.3385
rwrist -28.1307
rhand -26.8244 -43.068
rfingers 7.12502
rthumb -0.250488 -73.0476
lclavicle 8.26944e-014 1.62208e-013
lhumerus 4.6177 23.0043 18.7864
lradius 77.9574
lwrist 41.4007
lhand -26.0141 -26.2043
lfingers 7.12502
lthumb 0.532116 3.77479
rfemur -34.9232 -4.51265 -3.38533
rtibia 32.86
rfoot -6.28713 -0.290895
rtoes 22.6233
lfemur -0.170755 15.7598 -53.3774
ltibia 12.4772
lfoot 12.2737 -20.5763
ltoes 34.7246
1906
root 29.6299 17.3367 -18.8188 59.3247 242.775 -52.027
lowerback 17.807 2.92351 -1.52564
upperback 7.94209 2.97181 10.8925
thorax -2.0588 0.898261 12.292
lowerneck -25.9646 4.55951 11.3471
upperneck 31.4045 5.05684 -10.5667
head 16.21 1.81543 -5.55157
rclavicle 9.54166e-015 -5.40694e-014
rhumerus -27.6889 -10.1943 -55.9248
rradius 47.3741
rwrist -29.2287
rhand -25.522 -43.0567
rfingers 7.12502
rthumb 1.0074 -73.0341
lclavicle 9.54166e-015 -5.40694e-014
lhumerus 6.4797 21.8752 20.2515
lradius 78.3173
lwrist 41.5132
lhand -26.3488 -26.6011
lfingers 7.12502
lthumb 0.208839 3.37858
rfemur -34.3097 -5.08033 -2.98991
rtibia 31.2774
rfoot -8.78608 -3.31029
rtoes 18.3758
lfemur -0.356671 15.6934 -53.0699
ltibia 12.9702
lfoot 12.7547 -22.0783
ltoes 35.9723
1907
root 29.5221 17.3025 -18.8289 59.9539 242.677 -52.3319
lowerback 17.7066 2.86617 -1.86202
upperback 7.84958 2.86553 10.8458
thorax -2.09548 0.851678 12.4684
lowerneck -25.395 4.65033 11.4127
upperneck 30.897 5.26568 -10.7109
head 15.8757 1.89773 -5.54128
rclavicle 5.08889e-014 5.725e-014
rhumerus -28.6661 -10.8738 -54.3322
rradius 45.8956
rwrist -29.5197
rhand -23.8749 -42.3131
rfingers 7.12502
rthumb 2.59817 -72.277
lclavicle 5.08889e-014 5.725e-014
lhumerus 8.45538 20.4727 22.0296
lradius 78.3982
lwrist 41.2147
lhand -25.899 -26.2317
lfingers 7.12502
lthumb 0.643326 3.74703
rfemur -33.4528 -5.42019 -2.97182
rtibia 29.6825
rfoot -9.99064 -6.89211
rtoes 12.1965
lfemur -0.458083 15.5916 -52.9632
ltibia 13.4803
lfoot 13.6618 -23.3454
ltoes 36.4822
1908
root 29.4188 17.2631 -18.84 60.783 242.702 -52.9234
lowerback 17.7766 2.79945 -2.08235
upperback 7.73961 2.77073 10.7927
thorax -2.23684 0.817171 12.5634
lowerneck -25.7681 4.74715 11.1986
upperneck 31.1326 5.39145 -10.4688
head 16.0763 1.95449 -5.38626
rclavicle 2.54444e-014 8.90555e-014
rhumerus -29.8543 -11.3045 -52.7453
rradius 44.5479
rwrist -29.8827
rhand -22.5416 -41.6255
rfingers 7.12502
rthumb 3.88576 -71.5698
lclavicle 2.54444e-014 8.90555e-014
lhumerus 10.7066 19.0154 23.9195
lradius 78.308
lwrist 40.6347
lhand -25.2827 -25.3738
lfingers 7.12502
lthumb 1.23855 4.60233
rfemur -32.9206 -5.51976 -3.13824
rtibia 29.1528
rfoot -11.5137 -7.31368
rtoes 9.05375
lfemur -0.512087 14.9821 -52.8747
ltibia 14.198
lfoot 14.1196 -24.7234
ltoes 35.1281
1909
root 29.3223 17.2111 -18.8496 61.7862 242.743 -53.6656
lowerback 17.7769 2.76413 -2.31191
upperback 7.63613 2.71525 10.7443
thorax -2.34392 0.802327 12.661
lowerneck -24.5287 4.72415 10.7023
upperneck 30.3907 5.48857 -9.9442
head 15.4146 2.03134 -4.98244
rclavicle 7.31528e-014 1.36764e-013
rhumerus -31.5325 -10.7977 -51.3089
rradius 43.9505
rwrist -30.6332
rhand -21.4396 -41.4247
rfingers 7.12502
rthumb 4.94988 -71.3468
lclavicle 7.31528e-014 1.36764e-013
lhumerus 12.872 17.1859 25.7045
lradius 78.0994
lwrist 40.3641
lhand -25.5936 -26.0813
lfingers 7.12502
lthumb 0.938305 3.89634
rfemur -32.3631 -5.31039 -3.55659
rtibia 28.5666
rfoot -12.2588 -7.43701
rtoes 6.27903
lfemur -0.710685 14.4303 -52.8162
ltibia 15.0991
lfoot 14.9491 -26.2663
ltoes 36.203
1910
root 29.2378 17.1528 -18.8545 62.6066 242.938 -54.2926
lowerback 17.88 2.65976 -2.40171
upperback 7.68888 2.55791 10.7027
thorax -2.30454 0.717596 12.7034
lowerneck -24.4315 4.8464 10.9081
upperneck 29.9267 5.71356 -10.299
head 15.2336 2.10431 -5.09973
rclavicle -3.18055e-015 1.27222e-014
rhumerus -32.0389 -11.6293 -49.9867
rradius 41.9714
rwrist -29.4415
rhand -20.0159 -40.7817
rfingers 7.12502
rthumb 6.32444 -70.6673
lclavicle -3.18055e-015 1.27222e-014
lhumerus 14.9443 15.7132 27.3525
lradius 77.9595
lwrist 39.694
lhand -25.4661 -25.0164
lfingers 7.12502
lthumb 1.06141 4.96068
rfemur -32.6067 -5.40129 -3.69851
rtibia 29.3389
rfoot -12.6605 -7.51787
rtoes 3.81715
lfemur -0.89642 13.9321 -52.5948
ltibia 15.8526
lfoot 16.2577 -27.6227
ltoes 39.1439
1911
root 29.1725 17.0936 -18.8537 63.2663 243.564 -54.8769
lowerback 18.3644 2.50404 -1.94319
upperback 7.70184 2.42076 10.7654
thorax -2.49665 0.652385 12.5292
lowerneck -25.3366 4.93069 11.5384
upperneck 30.0822 5.77417 -11.1064
head 15.5793 2.07351 -5.57611
rclavicle -7.95139e-014 -1.52667e-013
rhumerus -32.9271 -12.2479 -48.632
rradius 40.4542
rwrist -28.2606
rhand -18.8564 -40.2233
rfingers 7.12502
rthumb 7.44378 -70.0723
lclavicle -7.95139e-014 -1.52667e-013
lhumerus 17.0457 14.1151 29.164
lradius 77.8205
lwrist 38.8975
lhand -25.3142 -23.8989
lfingers 7.12502
lthumb 1.20812 6.07747
rfemur -32.9887 -5.51589 -3.42308
rtibia 30.4018
rfoot -12.5877 -7.90733
rtoes 0.406473
lfemur -1.07768 12.6848 -52.0613
ltibia 16.8558
lfoot 17.0195 -28.2459
ltoes 41.3503
1912
root 29.1188 17.0351 -18.8438 63.6391 244.19 -55.1662
lowerback 19.061 2.44451 -1.33346
upperback 7.71279 2.44604 10.8487
thorax -2.83392 0.672699 12.2534
lowerneck -24.9303 4.75278 11.2622
upperneck 29.3962 5.55757 -10.836
head 15.1119 1.9956 -5.4006
rclavicle 4.13472e-014 1.01778e-013
rhumerus -34.1188 -12.5718 -47.2067
rradius 39.2674
rwrist -27.102
rhand -17.6758 -39.4928
rfingers 7.12502
rthumb 8.58324 -69.2983
lclavicle 4.13472e-014 1.01778e-013
lhumerus 19.1209 12.228 31.1139
lradius 77.6936
lwrist 38.1707
lhand -25.8277 -23.6457
lfingers 7.12502
lthumb 0.71212 6.33282
rfemur -33.7278 -5.79904 -3.02707
rtibia 31.9322
rfoot -12.2379 -7.78438
rtoes 0.902293
lfemur -1.48209 11.1447 -51.6567
ltibia 18.2022
lfoot 16.6726 -28.6685
ltoes 41.1845
1913
root 29.0551 16.9849 -18.8286 63.3607 244.616 -54.8343
lowerback 19.5935 2.46706 -0.756609
upperback 7.95326 2.53314 10.9253
thorax -2.84643 0.696043 11.9727
lowerneck -25.8404 4.81178 11.3164
upperneck 29.9635 5.6161 -11.0175
head 15.597 1.98439 -5.52539
rclavicle 7.95139e-014 -6.04305e-014
rhumerus -34.9363 -13.0685 -45.7646
rradius 37.795
rwrist -25.3994
rhand -15.8196 -37.5812
rfingers 7.12502
rthumb 10.3741 -67.3053
lclavicle 7.95139e-014 -6.04305e-014
lhumerus 21.0317 10.4729 33.1035
lradius 77.5552
lwrist 37.4196
lhand -26.6336 -23.7912
lfingers 7.12502
lthumb -0.0661803 6.18858
rfemur -34.4541 -6.07727 -2.60324
rtibia 33.4775
rfoot -12.9054 -7.63913
rtoes 0.397881
lfemur -1.84153 9.89843 -51.4089
ltibia 19.288
lfoot 15.6311 -29.2093
ltoes 38.2099
